<?xml version="1.0" encoding="utf-8"?>
<!-- Generator: Adobe Illustrator 19.1.0, SVG Export Plug-In . SVG Version: 6.00 Build 0)  -->
<!DOCTYPE svg PUBLIC "-//W3C//DTD SVG 1.1//EN" "http://www.w3.org/Graphics/SVG/1.1/DTD/svg11.dtd">
<svg version="1.1" id="Layer_1" xmlns="http://www.w3.org/2000/svg" xmlns:xlink="http://www.w3.org/1999/xlink" x="0px" y="0px"
	 viewBox="0 0 278 94" style="enable-background:new 0 0 278 94;" xml:space="preserve">
<style type="text/css">
	.st0{display:none;fill-rule:evenodd;clip-rule:evenodd;}
	.st1{fill:#FFFFFF;}
	.st2{font-family:'MyriadPro-Regular';}
	.st3{font-size:24.2486px;}
</style>
<path class="st0" d="M274.4-48H74.1v93.4l7.6-17.9h9.9l5.9,13.8V27.5h14.1l4.7,12l5-12h14v0h21.3v0h16l1.4,0l1.3,0.1l1.2,0.1
	l1.2,0.2l1.1,0.2l1,0.3l1,0.3l0.9,0.4l0.6,0.3l0.5,0.3l0.5,0.4l0.3,0.3v-2.9H195v3.7l0.2-0.2l0.6-0.6l0.6-0.5l0.7-0.5l0.7-0.4
	l0.7-0.4l0.8-0.3l0.8-0.3l0.8-0.2l0.8-0.2l0.9-0.1l0.9-0.1l0.9-0.1l0.9,0H216h0.5h9.4l6.7,15.7V27.5H244l3.9,7.2v-7.2h11.2v28.8
	h-11.2l-4.2-7.4v7.4h-5.6h-5.6h-7.2l-2.2-5.2h-4.4l-2.2,5.2h-11.2h-0.6l-0.6,0l-0.6,0l-0.5,0l-0.5,0l-0.5,0l-0.5-0.1l-0.5-0.1
	l-1.3-0.3l-1.3-0.5l-1.2-0.6l-1.1-0.8l-1-0.9l-0.1-0.1v3.5h-6.5h-4.8h-8.5l-0.8-2.5l-0.1-0.4l-0.1-0.4l-0.1-0.5L174,52l-0.1-0.5
	l-0.1-0.6l-0.1-0.6l-0.1-0.4l-0.1-0.3l-0.1-0.3l-0.1-0.2l-0.1-0.2l-0.1-0.2l0-0.1l0-0.1l0,0l0,0l0,0l0,0l0,0l-0.1,0l-0.1-0.1l-0.1,0
	l-0.1-0.1l-0.2-0.1l-0.3-0.1l-0.3-0.1l-0.4-0.1l-0.5,0l-0.5,0l-0.6,0h-1.2v8.5h-8h-4h-21.3h-0.6h-11.5v-4.2l-1.8,4.2H111l-1.4-3.4
	v3.4h-5.7h-6.4h-6.4l-2.2-5.2h-4.4l-2.2,5.2h-8.1v96h200.3V93.8l-0.2,0.2l-0.8,0.6l-0.8,0.5l-0.9,0.4l-0.9,0.3l-0.9,0.2l-0.5,0.1
	l-0.5,0.1l-0.5,0.1l-0.5,0l-0.5,0l-0.6,0l-0.6,0l-0.6,0h-14.1v-1.9l-0.2,0.2l-0.8,0.5l-0.9,0.4l-0.9,0.3l-0.9,0.2l-0.5,0.1l-0.5,0.1
	l-0.5,0.1l-0.5,0l-0.5,0l-0.6,0l-0.6,0l-0.6,0h-11.4h-2.7h-18.2h-5h-7.6l-0.8-2.6l-0.1-0.4l-0.1-0.4l-0.1-0.4l-0.1-0.5l-0.1-0.5
	l-0.1-0.6l-0.1-0.6l-0.1-0.4l-0.1-0.3l-0.1-0.3L197,89l-0.1-0.2l-0.1-0.2l0-0.1l0-0.1l0,0l0,0l0,0l0,0l0,0l-0.1,0l-0.1,0l0,0l-0.1,0
	l-0.2-0.1l-0.2-0.1l-0.3-0.1l-0.3-0.1l-0.4,0l-0.5,0l-0.5,0h-0.7v8.5h-11.5V85.2l-0.3,0.3l-0.4,0.4l-0.4,0.4l-0.4,0.3l-0.4,0.3
	l-0.4,0.3l-0.4,0.2l-0.4,0.2l-0.5,0.2l-0.5,0.2l-0.5,0.1l-0.5,0.1l-0.5,0.1l-0.5,0.1l-0.5,0.1l-0.5,0l-0.6,0l-0.6,0l-0.6,0h-5.3v7.8
	h-15.1l-4.3-5.6l-4.2,5.6h-29.1V67.5h14.4l0,0h15.2l3.8,5.2l4.1-5.2h19.1l0.9,0l0.8,0l0.8,0l0.7,0.1l0.7,0.1l0.7,0.1l0.6,0.1
	l0.6,0.2l0.9,0.3l0.8,0.4l0.8,0.5l0.8,0.5l0.7,0.6l0.6,0.6v-3.5h14.7l1.3,0l1.2,0.1l1.1,0.1l1.1,0.2l1,0.2l1,0.3l0.9,0.4l0.8,0.4
	l0.5,0.4l0.5,0.3l0,0v-2.3h25.5v2.1l0.6-0.5l0.8-0.5l0.9-0.4l0.9-0.3l0.9-0.2l0.9-0.1l0.4,0l0.3,0l0.4,0l0.4,0l0.4,0l0.4,0l0.5,0
	l0.5,0h14v2.1l0.5-0.4l0.8-0.5l0.9-0.4L257,68l0.9-0.2l0.9-0.1l0.4,0l0.3,0l0.4,0l0.4,0l0.4,0l0.4,0l0.5,0l0.5,0h12.3V-48L274.4-48z
	 M232.1,85.9l1.1,0l-0.8-0.5l-0.7-0.5l-0.4-0.4l-0.4-0.4l-0.3-0.4l-0.3-0.4l-0.3-0.4v2.7h2.2V85.9L232.1,85.9z M255.1,85.7l0,0.2
	l0.3,0L255.1,85.7L255.1,85.7z M138.7,84l1.8-2.2l-1.8-2.3V84L138.7,84z M211.5,38h-5.4l-0.6,0L205,38l-0.4,0.1l-0.3,0.1l-0.2,0.1
	l-0.2,0.1l-0.1,0.1l-0.1,0.1l0,0l-0.1,0.1l-0.1,0.2l-0.1,0.3l-0.1,0.4l-0.1,0.5l0,0.6l0,0.7l0,1l0.1,0.9l0.1,0.7l0.1,0.6l0.2,0.4
	l0.1,0.2l0.1,0.1l0.1,0.1l0.1,0l0.2,0.1l0.2,0.1l0.3,0.1l0.4,0.1l0.5,0l0.6,0h1.9L211.5,38L211.5,38z"/>
<path class="st1" d="M63.8,25.8h7l-5.7,13.3h-8.2l-9.2-22.7v22.7h-7.6V8.9h11.6L61,32.5L63.8,25.8L63.8,25.8z M74.8,25.8h7.6v13.3
	h-7.6V25.8L74.8,25.8z M90.3,25.8h23.4v0.6H97.5v6.9h19.2v5.8H90.3V25.8L90.3,25.8z M120,25.8h26.1c-0.3,0.1-0.7,0.2-1.1,0.3
	c1.4,0.4,2.4,0.8,3.1,1.3c0.7,0.5,1.3,1.2,1.9,2.1c0.4,0.7,0.7,1.4,0.9,2.1c0.2,0.7,0.3,1.7,0.5,3c0.2,2.2,0.5,3.7,0.9,4.5h-8.4
	c-0.3-0.7-0.5-2.1-0.8-4.3c-0.2-1.8-0.6-3.1-1.1-4.1c-0.5-0.9-1.4-1.7-2.5-2.2c-1.4-0.6-3.3-0.9-5.9-0.9h-6.1v11.5H120V25.8
	L120,25.8z M156.6,25.8h6.6v13.3h-6.6V25.8L156.6,25.8z M167,25.8h7.3c0.3,3.2,1.1,5.3,2.6,6.5c1.2,1,3.2,1.5,5.8,1.5h5.5l3.4-7.9h7
	l-0.4,1h8.8l-0.4-1h7l5.7,13.3h-7.7l-3-7h-11.8l-3,7h-1.5h-6.2h-4.6c-2.1,0-3.6-0.1-4.7-0.3c-3.8-0.7-6.5-2.8-8.1-6.2
	C167.7,30.7,167.2,28.4,167,25.8L167,25.8z M222.7,25.8h6.3v13.3h-6.3V25.8L222.7,25.8z M234,25.8h6.4l3.1,5.6v-5.6h6.3v13.3h-8.1
	L234,25.8L234,25.8z M249.7,25.8h-6.3V8.9h6.3V25.8L249.7,25.8z M240.3,25.8H234l-5-8.8v8.8h-6.3V8.9h8.4L240.3,25.8L240.3,25.8z
	 M213.5,25.8h-7l-4-9.6l-4,9.6h-7l7.2-16.9h7.6L213.5,25.8L213.5,25.8z M174.3,25.8H167c0-0.5,0-1.1,0-1.7c0-4.1,0.8-7.4,2.4-9.9
	c1.2-1.8,2.7-3.2,4.7-4c2-0.8,4.5-1.3,7.6-1.3h10.5v5.4h-9.7c-3,0-5.1,0.8-6.5,2.3c-1.1,1.3-1.7,3.6-1.7,6.9
	C174.2,24.3,174.3,25.1,174.3,25.8L174.3,25.8z M163.1,25.8h-6.6V8.9h6.6V25.8L163.1,25.8z M146.1,25.8H120V8.9h17.2
	c4.9,0,8.4,0.5,10.4,1.6c1.3,0.7,2.4,1.7,3.1,2.9c0.7,1.2,1.1,2.5,1.1,3.9c0,2.9-0.9,5.1-2.6,6.6C148.4,24.7,147.4,25.3,146.1,25.8
	L146.1,25.8z M113.7,25.8H90.3V8.9h25.7v5.6H97.5v6.1h16.2V25.8L113.7,25.8z M82.4,25.8h-7.6v-9.3l-4,9.3h-7l7-16.9h11.6V25.8
	L82.4,25.8z M218.3,93.2v-5.4h13.3c2.1,0,3.6-0.2,4.3-0.7c1-0.6,1.5-1.6,1.5-2.9c0-1.5-0.6-2.5-1.8-3.2c-0.7-0.4-1.8-0.6-3.3-0.6
	H227c-3.3,0-5.7-0.6-7.1-1.9c-0.9-0.8-1.6-1.8-2.1-2.9c-0.5-1.2-0.8-2.5-0.8-3.8c0-2.1,0.6-4.1,1.8-5.8c1.2-1.7,3-2.7,5.6-3
	c0.9-0.1,2.2-0.1,3.9-0.1h14.5v5.4h-13.1c-2,0-3.3,0.1-3.9,0.3c-1.3,0.3-2,1.4-2,3.1c0,1.4,0.5,2.4,1.7,2.9c0.7,0.3,2,0.5,3.7,0.5
	h4.7c2.4,0,4.2,0.2,5.4,0.6c2.1,0.7,3.5,2,4.3,3.8c0.6,1.5,0.9,3,0.9,4.7c0,1.8-0.4,3.5-1.2,4.9c-1.1,2.1-2.9,3.3-5.1,3.7
	c-1.1,0.2-2.8,0.3-5,0.3H218.3L218.3,93.2z M186.9,63h25.7v5.6H194v6.1h16.2v5.7H194v6.9h19.2v5.8h-26.3V63L186.9,63z M63.7,63h23.9
	l0,0h9.5l7.2,9.9l7.8-9.9h6.9h2.5h14.3c3.1,0,5.2,0.2,6.6,0.6c2.2,0.7,3.9,2,5.2,4.1c0.9,1.5,1.4,3.3,1.4,5.1c0,1.5-0.3,3-0.9,4.4
	c-0.6,1.4-1.5,2.5-2.6,3.4c-1,0.8-2,1.3-3.2,1.6c-1.1,0.3-2.7,0.5-4.6,0.5h-11.5v10.5h-4.6H119h-6.7l-8.1-10.3l-7.9,10.3H90h-2.9
	H63.7V63L63.7,63z M89.4,65.4v3.3H70.8v6.1h16.2v5.7H70.8v6.9H90l1.8,0.1l7.8-9.5L89.4,65.4L89.4,65.4z M248.3,93.2v-5.4h13.3
	c2.1,0,3.6-0.2,4.3-0.7c1-0.6,1.5-1.6,1.5-2.9c0-1.5-0.6-2.5-1.8-3.2c-0.7-0.4-1.8-0.6-3.3-0.6h-5.4c-3.3,0-5.7-0.6-7.1-1.9
	c-0.9-0.8-1.6-1.8-2.1-2.9c-0.5-1.2-0.8-2.5-0.8-3.8c0-2.1,0.6-4.1,1.8-5.8c1.2-1.7,3-2.7,5.6-3c0.9-0.1,2.2-0.1,3.9-0.1h14.5v5.4
	h-13.1c-2,0-3.3,0.1-3.9,0.3c-1.3,0.3-2,1.4-2,3.1c0,1.4,0.5,2.4,1.7,2.9c0.7,0.3,2,0.5,3.7,0.5h4.7c2.4,0,4.2,0.2,5.4,0.6
	c2.1,0.7,3.5,2,4.3,3.8c0.6,1.5,0.9,3,0.9,4.7c0,1.8-0.4,3.5-1.2,4.9c-1.1,2.1-2.9,3.3-5.2,3.7c-1.1,0.2-2.8,0.3-5,0.3H248.3
	L248.3,93.2z M160.9,76.3h9.5c1.6,0,2.7-0.2,3.4-0.7c1-0.7,1.5-1.8,1.5-3.5c0-1.8-0.8-3-2.3-3.5c-0.5-0.2-1.4-0.3-2.6-0.3h-9.5V76.3
	L160.9,76.3z M160.9,81.7v11.5h-6.7V63h15.5c4.4,0,7.5,0.5,9.3,1.6c1.2,0.7,2.1,1.7,2.8,2.9c0.7,1.2,1,2.5,1,3.9
	c0,2.9-0.8,5.1-2.3,6.6c-0.9,0.9-2.2,1.7-3.8,2.2c1.2,0.4,2.2,0.8,2.8,1.3c0.6,0.5,1.2,1.2,1.7,2.1c0.4,0.7,0.7,1.4,0.8,2.1
	c0.2,0.7,0.3,1.7,0.4,3c0.2,2.2,0.4,3.7,0.8,4.5h-7.6c-0.2-0.7-0.5-2.1-0.7-4.3c-0.2-1.8-0.5-3.1-1-4.1c-0.5-0.9-1.2-1.7-2.2-2.2
	c-1.2-0.6-3-0.9-5.3-0.9H160.9L160.9,81.7z M119,66l-9.9,11.9l9.9,12.2V66L119,66z M126.2,77.3h9.7c1.7,0,3-0.3,3.7-0.8
	c1.1-0.7,1.6-2.1,1.6-3.9c0-2-0.8-3.3-2.4-3.9c-0.6-0.2-1.5-0.3-2.7-0.3h-9.9V77.3L126.2,77.3z M21.1,16.2l-4.4,10.6h8.8L21.1,16.2
	L21.1,16.2z M4.5,39.1L17.3,8.9h7.6l12.8,30.2H30l-3-7H15.2l-3,7H4.5L4.5,39.1z M127.5,22.2h10.6c1.8,0,3-0.2,3.7-0.7
	c1.1-0.7,1.7-1.8,1.7-3.5c0-1.8-0.8-3-2.5-3.5c-0.6-0.2-1.6-0.3-2.9-0.3h-10.6V22.2L127.5,22.2z"/>
<text transform="matrix(1 0 0 1 255.0323 24.2298)" class="st1 st2 st3">®</text>
</svg>
