<?xml version="1.0" encoding="utf-8"?>
<!-- Generator: Adobe Illustrator 19.1.0, SVG Export Plug-In . SVG Version: 6.00 Build 0)  -->
<!DOCTYPE svg PUBLIC "-//W3C//DTD SVG 1.1//EN" "http://www.w3.org/Graphics/SVG/1.1/DTD/svg11.dtd">
<svg version="1.1" xmlns="http://www.w3.org/2000/svg" xmlns:xlink="http://www.w3.org/1999/xlink" x="0px" y="0px"
	 viewBox="0 0 348.7 179" style="enable-background:new 0 0 348.7 179;" xml:space="preserve">
<style type="text/css">
	.st0{fill:#F58220;}
	.st1{fill:#E83530;}
	.st2{fill:url(#SVGID_1_);}
</style>
<g id="guides">
</g>
<g id="Layer_2">
	<path class="st0" d="M347.3,75.6c0,0-101.2,71.4-286.6,103.4h286.6V75.6z"/>
	<path class="st1" d="M311.8,149.7"/>
	
		<radialGradient id="SVGID_1_" cx="165.8582" cy="-455.5532" r="27.199" gradientTransform="matrix(1 0 0 1 6.416 486.083)" gradientUnits="userSpaceOnUse">
		<stop  offset="5.618000e-003" style="stop-color:#FFEFE1"/>
		<stop  offset="9.682110e-002" style="stop-color:#FFEAD8"/>
		<stop  offset="0.2456" style="stop-color:#FEDEC1"/>
		<stop  offset="0.4337" style="stop-color:#FDCA9E"/>
		<stop  offset="0.6534" style="stop-color:#FAAF72"/>
		<stop  offset="0.8971" style="stop-color:#F79038"/>
		<stop  offset="1" style="stop-color:#F58220"/>
	</radialGradient>
	<path class="st2" d="M172.3,3.6c-15.2,0-27.5,11.9-27.5,26.5c0,15.6,11.8,27.2,27.5,27.2c15.3,0,27.5-11.8,27.5-26.9
		C199.8,15.4,187.7,3.6,172.3,3.6z"/>
	<path d="M15.9,4.6H1.1v51.6h14.7c7.8,0,13.5-1.9,18.4-6c5.9-4.9,9.4-12.2,9.4-19.8C43.7,15.2,32.3,4.6,15.9,4.6z M27.7,43.4
		c-3.2,2.9-7.3,4.1-13.8,4.1h-2.7V13.4h2.7c6.5,0,10.5,1.2,13.8,4.2c3.5,3.1,5.6,7.9,5.6,12.8C33.3,35.3,31.2,40.3,27.7,43.4z"/>
	<rect x="48.3" y="4.6" width="10.1" height="51.6"/>
	<path d="M83,24.4c-6-2.2-7.8-3.7-7.8-6.5c0-3.3,3.2-5.7,7.5-5.7c3,0,5.5,1.2,8.1,4.2l5.3-6.9c-4.3-3.8-9.5-5.7-15.2-5.7
		c-9.1,0-16.1,6.4-16.1,14.8c0,7.1,3.3,10.8,12.7,14.2c4,1.4,6,2.3,7,2.9c2,1.3,3,3.2,3,5.3c0,4.2-3.3,7.3-7.8,7.3
		c-4.8,0-8.7-2.4-11-6.9l-6.5,6.3c4.6,6.8,10.2,9.8,17.9,9.8c10.5,0,17.8-7,17.8-17C97.9,32.3,94.5,28.6,83,24.4z"/>
	<path d="M101.1,30.5c0,15.2,11.9,27,27.3,27c4.3,0,8.1-0.9,12.6-3V42.5c-4,4-7.6,5.7-12.2,5.7c-10.1,0-17.4-7.4-17.4-17.8
		c0-9.9,7.4-17.7,16.9-17.7c4.8,0,8.4,1.7,12.6,5.8V6.6c-4.4-2.2-8.1-3.2-12.4-3.2C113.3,3.4,101.1,15.4,101.1,30.5z"/>
	<polygon points="222.6,39.3 208.8,4.6 197.8,4.6 219.7,57.6 225.1,57.6 247.4,4.6 236.5,4.6 	"/>
	<polygon points="252,56.3 280.6,56.3 280.6,47.5 262.1,47.5 262.1,33.6 279.9,33.6 279.9,24.8 262.1,24.8 262.1,13.4 280.6,13.4 
		280.6,4.6 252,4.6 	"/>
	<path d="M320.5,19.9c0-9.7-6.7-15.2-18.3-15.2h-14.9v51.6h10.1V35.5h1.3l13.9,20.8H325l-16.3-21.8
		C316.3,32.9,320.5,27.8,320.5,19.9z M300.3,28.4h-2.9V12.7h3.1c6.3,0,9.7,2.6,9.7,7.7C310.1,25.6,306.7,28.4,300.3,28.4z"/>
	<path d="M327.6,8.5c0-0.9-0.6-1.4-1.7-1.4h-1.5v4.5h1.1V9.8l1.3,1.8h1.3l-1.5-1.9C327.2,9.6,327.6,9.1,327.6,8.5z M325.7,9.1h-0.2
		V7.9h0.2c0.5,0,0.8,0.2,0.8,0.6C326.5,8.9,326.2,9.1,325.7,9.1z"/>
	<path d="M326.1,5.3c-2.2,0-4,1.8-4,4c0,2.2,1.8,4,4,4c2.2,0,3.9-1.8,3.9-4C330,7.1,328.2,5.3,326.1,5.3z M326.1,12.6
		c-1.8,0-3.2-1.5-3.2-3.3c0-1.8,1.4-3.3,3.2-3.3c1.7,0,3.1,1.5,3.1,3.3C329.2,11.1,327.8,12.6,326.1,12.6z"/>
	<path d="M91.4,69.8l13.5,14.1V70.6h1.9v18.1L93.4,74.5v13.3h-1.9V69.8z"/>
	<path d="M91.2,69.8V88h2.3c0,0,0-12.2,0-13c0.6,0.6,13.5,14.1,13.5,14.1V70.4h-2.3c0,0,0,12.3,0,13.1c-0.6-0.6-13.5-14.1-13.5-14.1
		V69.8z M91.6,70.3c0.6,0.6,13.5,14.1,13.5,14.1s0-13.3,0-13.7c0.3,0,1.3,0,1.6,0c0,0.3,0,16.6,0,17.4c-0.6-0.6-13.5-14.1-13.5-14.1
		s0,13.2,0,13.6c-0.3,0-1.3,0-1.6,0C91.6,87.3,91.6,71.1,91.6,70.3z"/>
	<path d="M116.2,70.6h9v1.8h-7v5.1h6.8v1.8h-6.8v6.8h7v1.8h-9V70.6z"/>
	<path d="M125.1,70.4H116V88h9.3v-2.2c0,0-6.7,0-7,0c0-0.3,0-6.1,0-6.4c0.3,0,6.8,0,6.8,0v-2.1c0,0-6.5,0-6.8,0c0-0.3,0-4.5,0-4.8
		c0.3,0,7,0,7,0v-2.2H125.1z M124.9,70.7c0,0.3,0,1.2,0,1.4c-0.3,0-7,0-7,0v5.5c0,0,6.5,0,6.8,0c0,0.3,0,1.2,0,1.4
		c-0.3,0-6.8,0-6.8,0v7.1c0,0,6.7,0,7,0c0,0.3,0,1.2,0,1.4c-0.3,0-8.3,0-8.6,0c0-0.3,0-16.6,0-16.9
		C116.7,70.7,124.6,70.7,124.9,70.7z"/>
	<path d="M138.7,87.8h-1.9V72.4h-4.2v-1.8h10.3v1.8h-4.2V87.8z"/>
	<path d="M142.9,70.4h-10.5v2.2c0,0,3.8,0,4.2,0c0,0.3,0,15.5,0,15.5h2.3c0,0,0-15.1,0-15.5c0.3,0,4.2,0,4.2,0v-2.2H142.9z
		 M142.7,70.7c0,0.3,0,1.2,0,1.4c-0.3,0-4.2,0-4.2,0s0,15.1,0,15.5c-0.3,0-1.3,0-1.6,0c0-0.3,0-15.5,0-15.5s-3.8,0-4.2,0
		c0-0.3,0-1.2,0-1.4C133.1,70.7,142.4,70.7,142.7,70.7z"/>
	<path d="M155.8,83.5l5.6-13.9l5.6,13.9l4.5-12.9h2.1L167,88.7l-5.6-13.9l-5.6,13.9l-6.6-18.2h2.1L155.8,83.5z"/>
	<path d="M161.2,69.6c0,0-5.1,12.6-5.4,13.4c-0.3-0.8-4.4-12.6-4.4-12.6h-2.5l6.9,18.9c0,0,5.3-13.2,5.6-13.9
		c0.3,0.8,5.6,13.9,5.6,13.9l6.9-18.9h-2.5c0,0-4.1,11.8-4.4,12.6c-0.3-0.8-5.6-13.8-5.6-13.8L161.2,69.6z M156,83.6
		c0,0,5.1-12.7,5.4-13.4C161.7,70.9,167,84,167,84s4.6-13,4.7-13.3c0.2,0,1.3,0,1.7,0c-0.2,0.5-6.1,16.7-6.4,17.5
		c-0.3-0.8-5.6-13.9-5.6-13.9s-5.3,13.1-5.6,13.9c-0.3-0.8-6.2-17-6.4-17.5c0.4,0,1.5,0,1.7,0c0.1,0.2,4.7,13.3,4.7,13.3L156,83.6z"
		/>
	<path d="M198.5,79.2c0,5-4.1,8.9-9,8.9c-4.9,0-9-3.9-9-8.9c0-4.9,4.1-9,9-9C194.4,70.3,198.5,74.3,198.5,79.2z M182.4,79.2
		c0,3.9,3.2,7.1,7.1,7.1c3.9,0,7.1-3.3,7.1-7.1c0-3.9-3.1-7.2-7.1-7.2C185.5,72,182.4,75.3,182.4,79.2z"/>
	<path d="M180.3,79.2c0,5,4.1,9.1,9.2,9.1c5.1,0,9.2-4.1,9.2-9.1c0-5-4.1-9.1-9.2-9.1C184.4,70.1,180.3,74.2,180.3,79.2z
		 M180.7,79.2c0-4.8,4-8.8,8.8-8.8c4.9,0,8.8,3.9,8.8,8.8c0,4.8-4,8.7-8.8,8.7C184.6,88,180.7,84,180.7,79.2z"/>
	<path d="M182.2,79.2c0,4.1,3.3,7.3,7.3,7.3c4,0,7.3-3.3,7.3-7.3c0-4-3.2-7.3-7.3-7.3C185.5,71.9,182.2,75.2,182.2,79.2z
		 M182.6,79.2c0-3.8,3.1-7,6.9-7c3.8,0,6.9,3.1,6.9,7c0,3.8-3.1,7-6.9,7C185.7,86.2,182.6,83,182.6,79.2z"/>
	<path d="M208.8,87.8h-1.9V70.6h2.5c3.3,0,6.3,0.9,6.3,4.8c0,2.7-1.7,4.5-4.3,4.8l5.5,7.7h-2.4l-5.2-7.6h-0.5V87.8z M208.8,78.6h0.6
		c2.2,0,4.4-0.4,4.4-3.1c0-2.8-2.1-3.1-4.4-3.1h-0.6V78.6z"/>
	<path d="M206.9,70.4h-0.2V88h2.3c0,0,0-7.2,0-7.6c0.1,0,0.3,0,0.3,0l0,0c0,0.1,5.1,7.5,5.1,7.5l2.5,0.1h0.4c0,0-5.3-7.4-5.5-7.8
		c2.5-0.3,4.2-2.2,4.2-4.9c0-3.3-2.1-4.9-6.5-4.9H206.9z M209.4,70.7c4.2,0,6.1,1.5,6.1,4.6c0,2.6-1.6,4.4-4.2,4.6l-0.3,0
		c0,0,5.1,7.2,5.5,7.7c-0.5,0-2,0-2,0h0c0-0.1-5.1-7.5-5.1-7.5l-0.6-0.1h-0.2c0,0,0,7.2,0,7.6c-0.3,0-1.3,0-1.6,0
		c0-0.3,0-16.6,0-16.9C207.3,70.7,209.4,70.7,209.4,70.7z"/>
	<path d="M208.8,72.2h-0.2v6.6h0.8c2.1,0,4.6-0.4,4.6-3.3c0-3-2.4-3.3-4.6-3.3H208.8z M209.4,72.5c2.2,0,4.2,0.2,4.2,2.9
		c0,2.6-2.1,2.9-4.2,2.9c0,0-0.2,0-0.4,0c0-0.3,0-5.5,0-5.8C209.1,72.5,209.4,72.5,209.4,72.5z"/>
	<path d="M234.3,70.6h2.6l-8.1,8.1l8.4,9.2h-2.7l-7.1-7.9l-0.5,0.5v7.5H225V70.6h1.9V78L234.3,70.6z"/>
	<path d="M236.9,70.4h-2.7c0,0-6.6,6.6-7.1,7.2c0-0.8,0-7.2,0-7.2h-2.3V88h2.3c0,0,0-7.6,0-7.6c0,0,0.2-0.1,0.3-0.2
		c0.2,0.3,7,7.8,7,7.8l2.8,0.1h0.4c0,0-8.3-9.2-8.6-9.4c0.3-0.2,8.3-8.2,8.3-8.2H236.9z M236.4,70.7c-0.6,0.6-7.9,7.9-7.9,7.9
		s7.7,8.5,8.2,9.1c-0.6,0-2.3,0-2.3,0l0,0c0-0.1-7-7.9-7-7.9l-0.1-0.1l-0.6,0.6c0,0-0.1,7.1-0.1,7.4c-0.3,0-1.3,0-1.6,0
		c0-0.3,0-16.6,0-16.9c0.3,0,1.3,0,1.6,0c0,0.3,0,7.7,0,7.7s7.5-7.6,7.6-7.7C234.5,70.7,235.8,70.7,236.4,70.7z"/>
</g>
</svg>
