<?xml version="1.0" encoding="utf-8"?>
<!-- Generator: Adobe Illustrator 19.1.0, SVG Export Plug-In . SVG Version: 6.00 Build 0)  -->
<!DOCTYPE svg PUBLIC "-//W3C//DTD SVG 1.1//EN" "http://www.w3.org/Graphics/SVG/1.1/DTD/svg11.dtd">
<svg version="1.1" id="Layer_1" xmlns="http://www.w3.org/2000/svg" xmlns:xlink="http://www.w3.org/1999/xlink" x="0px" y="0px"
	 viewBox="0 0 149.2 93.2" style="enable-background:new 0 0 149.2 93.2;" xml:space="preserve">
<style type="text/css">
	.st0{display:none;fill:none;}
	.st1{fill:#ED1C2E;}
	.st2{fill:#FCB131;}
	.st3{fill:#003473;}
	.st4{fill:#FFFFFF;}
</style>
<g>
	<rect x="-40.5" y="-39.1" class="st0" width="230.2" height="172.3"/>
	<g>
		<g>
			<g>
				<circle class="st1" cx="45.7" cy="47" r="43.1"/>
				<g>
					<path class="st2" d="M103.5,4C92.4,4,82.2,8.2,74.6,15.1c-1.6,1.4-3,2.9-4.3,4.6h8.7c1.2,1.4,2.3,3,3.3,4.6H66.9
						c-0.9,1.5-1.7,3-2.5,4.6h20.2c0.7,1.5,1.3,3,1.8,4.6H62.6c-0.5,1.5-0.9,3-1.3,4.6h26.4c0.6,2.9,1,6,1,9.1
						c0,4.8-0.8,9.4-2.2,13.7H62.6c0.5,1.6,1.1,3.1,1.8,4.6h20.2c-0.7,1.6-1.6,3.1-2.5,4.6H66.9c1,1.6,2.1,3.1,3.3,4.6h8.7
						c-1.3,1.6-2.8,3.2-4.4,4.6c7.6,6.9,17.8,11.1,28.9,11.1c23.8,0,43.1-19.3,43.1-43.1C146.6,23.2,127.3,4,103.5,4z"/>
				</g>
			</g>
			<path class="st2" d="M140.8,71c0-0.8,0.6-1.4,1.4-1.4c0.8,0,1.4,0.6,1.4,1.4c0,0.8-0.6,1.4-1.4,1.4
				C141.5,72.4,140.8,71.8,140.8,71z M142.2,72.1c0.6,0,1.1-0.5,1.1-1.1c0-0.6-0.5-1.1-1.1-1.1c-0.6,0-1.1,0.5-1.1,1.1
				C141.2,71.6,141.6,72.1,142.2,72.1z M142,71.7h-0.3v-1.2h0.5c0.1,0,0.2,0,0.3,0.1c0.1,0.1,0.2,0.2,0.2,0.3c0,0.1-0.1,0.3-0.2,0.3
				l0.2,0.5h-0.3l-0.2-0.5H142V71.7z M142,71h0.2c0.1,0,0.1,0,0.2,0c0,0,0.1-0.1,0.1-0.1c0,0,0-0.1-0.1-0.1c-0.1,0-0.1,0-0.2,0H142
				V71z"/>
		</g>
		<g>
			<g>
				<path class="st3" d="M35.6,51.8c-0.5-0.1-0.7-0.1-1-0.1c-2.7,0-4,0.9-4,2.7c0,1.1,0.7,1.8,1.7,1.8
					C34.1,56.2,35.5,54.4,35.6,51.8z M39,59.7c-0.6,0-3.9,0-3.9,0l0.1-1.8C34,59.3,32.5,60,30.3,60c-2.5,0-4.3-2-4.3-4.9
					c0-4.3,3-6.9,8.2-6.9c0.5,0,1.2,0,1.9,0.1c0.1-0.6,0.2-0.8,0.2-1.2c0-1.2-0.8-1.6-3-1.6c-2.3,0-4.2,0.5-5,0.8c0-0.3,0.6-4,0.6-4
					c2.3-0.7,3.9-0.9,5.6-0.9c4,0,6.1,1.8,6.1,5.2c0,0.9-0.1,2-0.4,3.5C40,52.8,39.1,58.3,39,59.7z"/>
				<polygon class="st3" points="24.1,59.7 19.4,59.7 22.1,42.9 16.1,59.7 12.9,59.7 12.5,43 9.7,59.7 5.3,59.7 9,37.8 15.7,37.8 
					16.1,50 20.2,37.8 27.7,37.8 				"/>
				<path class="st3" d="M109.3,51.8c-0.5-0.1-0.7-0.1-1-0.1c-2.7,0-4,0.9-4,2.7c0,1.1,0.7,1.8,1.7,1.8
					C107.8,56.2,109.2,54.4,109.3,51.8z M112.7,59.7c-0.6,0-3.9,0-3.9,0l0.1-1.8c-1.2,1.5-2.8,2.1-4.9,2.1c-2.5,0-4.3-2-4.3-4.9
					c0-4.3,3-6.9,8.2-6.9c0.5,0,1.2,0,1.9,0.1c0.1-0.6,0.2-0.8,0.2-1.2c0-1.2-0.8-1.6-3-1.6c-2.3,0-4.2,0.5-5,0.8
					c0.1-0.3,0.7-4,0.7-4c2.3-0.7,3.9-0.9,5.6-0.9c4,0,6.1,1.8,6.1,5.2c0,0.9-0.1,2-0.4,3.5C113.7,52.8,112.8,58.3,112.7,59.7z"/>
				<path class="st3" d="M59.8,59.4c-1.3,0.4-2.3,0.6-3.4,0.6c-2.4,0-3.7-1.4-3.7-3.9c0-0.8,0.3-2.9,0.6-4.7c0.3-1.7,2-12.1,2-12.1
					H60l-0.5,2.7h2.8l-0.6,4.3h-2.8c-0.5,3.4-1.3,7.6-1.3,8.1c0,0.9,0.5,1.3,1.6,1.3c0.5,0,0.9-0.1,1.3-0.2L59.8,59.4z"/>
				<path class="st3" d="M74,59.3c-1.6,0.5-3.1,0.7-4.8,0.7c-5.2,0-7.9-2.7-7.9-7.9c0-6.1,3.5-10.5,8.1-10.5c3.8,0,6.3,2.5,6.3,6.4
					c0,1.3-0.2,2.6-0.6,4.4h-9.3c-0.3,2.6,1.3,3.7,4,3.7c1.7,0,3.2-0.3,4.8-1.1L74,59.3z M71.4,48.7c0-0.4,0.5-3.2-2.2-3.2
					c-1.5,0-2.5,1.1-3,3.2H71.4z"/>
				<path class="st3" d="M41.8,47.5c0,2.2,1.1,3.8,3.6,5c1.9,0.9,2.2,1.2,2.2,2c0,1.1-0.8,1.6-2.7,1.6c-1.4,0-2.7-0.2-4.2-0.7
					c0,0-0.6,3.9-0.6,4.1c1.1,0.2,2,0.4,4.9,0.5c4.9,0,7.2-1.9,7.2-5.9c0-2.4-1-3.9-3.3-5c-2-0.9-2.2-1.1-2.2-1.9
					c0-1,0.8-1.5,2.3-1.5c0.9,0,2.2,0.1,3.4,0.3l0.7-4.1c-1.2-0.2-3-0.3-4.1-0.3C43.6,41.5,41.8,44.2,41.8,47.5z"/>
				<path class="st3" d="M96.8,42c1.3,0,2.5,0.3,4.2,1.2l0.8-4.7c-0.7-0.3-3.1-1.8-5.1-1.8c-3.1,0-5.8,1.6-7.6,4.1
					c-2.7-0.9-3.8,0.9-5.2,2.7l-1.2,0.3c0.1-0.6,0.2-1.2,0.1-1.8h-4.3c-0.6,5.5-1.6,11.1-2.4,16.6l-0.2,1.2h4.7
					c0.8-5.1,1.2-8.3,1.5-10.5l1.8-1c0.3-1,1.1-1.3,2.7-1.3c-0.2,1.2-0.3,2.4-0.3,3.6c0,5.8,3.1,9.4,8.2,9.4c1.3,0,2.4-0.2,4.1-0.6
					l0.8-5c-1.6,0.8-2.8,1.1-4,1.1c-2.7,0-4.4-2-4.4-5.3C90.8,45.3,93.3,42,96.8,42z"/>
				<path class="st3" d="M136.4,37.8l-1,6.3c-1.3-1.7-2.7-2.9-4.5-2.9c-2.4,0-4.5,1.8-5.9,4.4c-2-0.4-4-1.1-4-1.1l0,0
					c0.2-1.5,0.2-2.4,0.2-2.7h-4.3c-0.6,5.5-1.6,11.1-2.4,16.6l-0.2,1.2h4.7c0.6-4.1,1.1-7.5,1.5-10.2c1.6-1.4,2.4-2.7,4-2.6
					c-0.7,1.7-1.1,3.7-1.1,5.8c0,4.4,2.2,7.4,5.6,7.4c1.7,0,3-0.6,4.3-2l-0.2,1.7h4.4l3.6-21.9H136.4z M130.5,55.6
					c-1.6,0-2.4-1.2-2.4-3.5c0-3.5,1.5-6,3.6-6c1.6,0,2.5,1.2,2.5,3.5C134.2,53.1,132.7,55.6,130.5,55.6z"/>
			</g>
			<g>
				<polygon class="st4" points="25.4,58.4 20.7,58.4 23.4,41.6 17.4,58.4 14.3,58.4 13.9,41.7 11,58.4 6.7,58.4 10.3,36.5 
					17.1,36.5 17.2,50 21.8,36.5 29,36.5 				"/>
				<path class="st4" d="M36.9,50.5c-0.5-0.1-0.7-0.1-1-0.1c-2.7,0-4,0.9-4,2.7c0,1.1,0.7,1.8,1.7,1.8
					C35.5,54.9,36.9,53.1,36.9,50.5z M40.3,58.4c-0.6,0-3.9,0-3.9,0l0.1-1.8c-1.2,1.5-2.8,2.1-4.9,2.1c-2.5,0-4.3-2-4.3-4.9
					c0-4.3,3-6.8,8.2-6.8c0.5,0,1.2,0,1.9,0.1c0.1-0.6,0.2-0.8,0.2-1.2c0-1.2-0.8-1.6-3-1.6c-2.3,0-4.2,0.5-5,0.8c0-0.3,0.6-4,0.6-4
					c2.3-0.7,3.9-0.9,5.6-0.9c4,0,6.1,1.8,6.1,5.2c0,0.9-0.1,2-0.4,3.5C41.3,51.5,40.5,57,40.3,58.4z"/>
				<path class="st4" d="M103.1,37.1l-0.8,4.7c-1.7-0.8-2.9-1.2-4.2-1.2c-3.5,0-5.9,3.4-5.9,8.2c0,3.3,1.6,5.3,4.4,5.3
					c1.2,0,2.4-0.4,4-1.1l-0.8,5c-1.7,0.5-2.8,0.6-4.1,0.6c-5,0-8.2-3.6-8.2-9.4c0-7.8,4.3-13.3,10.5-13.3
					C100,36,102.4,36.8,103.1,37.1z"/>
				<path class="st4" d="M110.6,50.5c-0.5-0.1-0.7-0.1-1-0.1c-2.7,0-4,0.9-4,2.7c0,1.1,0.7,1.8,1.7,1.8
					C109.2,54.9,110.5,53.1,110.6,50.5z M114,58.4c-0.6,0-3.9,0-3.9,0l0.1-1.8c-1.2,1.5-2.8,2.1-4.9,2.1c-2.5,0-4.3-2-4.3-4.9
					c0-4.3,3-6.8,8.2-6.8c0.5,0,1.2,0,1.9,0.1c0.1-0.6,0.2-0.8,0.2-1.2c0-1.2-0.8-1.6-3-1.6c-2.3,0-4.2,0.5-5,0.8c0-0.3,0.6-4,0.6-4
					c2.3-0.7,3.9-0.9,5.6-0.9c4,0,6.1,1.8,6.1,5.2c0,0.9-0.1,2-0.4,3.5C115,51.5,114.1,57,114,58.4z"/>
				<path class="st4" d="M61.1,58.1c-1.3,0.4-2.3,0.6-3.4,0.6c-2.4,0-3.7-1.4-3.7-3.9c0-0.8,0.3-2.9,0.6-4.7c0.3-1.7,2-12.1,2-12.1
					h4.6l-0.5,2.7h2.4l-0.6,4.3h-2.4c-0.5,3.4-1.3,7.6-1.3,8.1c0,0.9,0.5,1.3,1.6,1.3c0.5,0,0.9-0.1,1.3-0.2L61.1,58.1z"/>
				<path class="st4" d="M75.4,58c-1.6,0.5-3.1,0.7-4.8,0.7c-5.2,0-7.9-2.7-7.9-7.9c0-6.1,3.5-10.5,8.1-10.5c3.8,0,6.3,2.5,6.3,6.4
					c0,1.3-0.2,2.6-0.6,4.4h-9.3c-0.3,2.6,1.3,3.7,4,3.7c1.7,0,3.2-0.3,4.8-1.1L75.4,58z M72.8,47.4c0-0.4,0.5-3.2-2.2-3.2
					c-1.5,0-2.5,1.1-3,3.2H72.8z"/>
				<path class="st4" d="M43.1,46.2c0,2.3,1.1,3.8,3.6,5c1.9,0.9,2.2,1.2,2.2,2c0,1.1-0.8,1.6-2.7,1.6c-1.4,0-2.7-0.2-4.2-0.7
					c0,0-0.6,3.9-0.6,4.1c1.1,0.2,2,0.4,4.9,0.5c4.9,0,7.2-1.9,7.2-5.9c0-2.4-1-3.9-3.3-5c-2-0.9-2.2-1.1-2.2-1.9
					c0-1,0.8-1.5,2.3-1.5c0.9,0,2.2,0.1,3.4,0.3l0.7-4.1c-1.2-0.2-3-0.3-4.1-0.3C44.9,40.2,43.1,42.9,43.1,46.2z"/>
				<path class="st4" d="M138.8,58.4h-4.4l0.2-1.7c-1.3,1.4-2.6,2-4.3,2c-3.4,0-5.6-2.9-5.6-7.4c0-5.9,3.5-10.9,7.6-10.9
					c1.8,0,3.2,0.7,4.5,2.4l1-6.3h4.6L138.8,58.4z M131.9,54.3c2.2,0,3.7-2.5,3.7-6c0-2.3-0.9-3.5-2.5-3.5c-2.1,0-3.6,2.5-3.6,6
					C129.5,53.1,130.3,54.3,131.9,54.3z"/>
				<path class="st4" d="M118.2,40.6c-0.6,5.5-1.6,11.1-2.4,16.6l-0.2,1.2h4.7c1.7-10.9,2.1-13,4.7-12.7c0.4-2.2,1.2-4.2,1.8-5.2
					c-2-0.4-3.1,0.7-4.5,2.8c0.1-0.9,0.3-1.8,0.3-2.7H118.2z"/>
				<path class="st4" d="M79.7,40.6c-0.6,5.5-1.6,11.1-2.4,16.6l-0.2,1.2h4.7c1.7-10.9,2.1-13,4.7-12.7c0.4-2.2,1.2-4.2,1.8-5.2
					c-2-0.4-3.1,0.7-4.5,2.8c0.1-0.9,0.3-1.8,0.3-2.7H79.7z"/>
				<g>
					<path class="st4" d="M140.8,57c0-0.8,0.6-1.4,1.4-1.4c0.8,0,1.4,0.6,1.4,1.4c0,0.8-0.6,1.4-1.4,1.4
						C141.5,58.4,140.8,57.7,140.8,57z M142.2,58c0.6,0,1.1-0.5,1.1-1.1c0-0.6-0.5-1.1-1.1-1.1c-0.6,0-1.1,0.5-1.1,1.1
						C141.2,57.6,141.6,58,142.2,58z M142,57.6h-0.3v-1.2h0.5c0.1,0,0.2,0,0.3,0.1c0.1,0.1,0.2,0.2,0.2,0.3c0,0.1-0.1,0.3-0.2,0.3
						l0.2,0.5h-0.3l-0.2-0.5H142V57.6z M142,56.9h0.2c0.1,0,0.1,0,0.2,0c0,0,0.1-0.1,0.1-0.1c0,0,0-0.1-0.1-0.1c0,0-0.1,0-0.2,0H142
						V56.9z"/>
				</g>
			</g>
		</g>
	</g>
</g>
</svg>
