<?xml version="1.0" encoding="utf-8"?>
<!-- Generator: Adobe Illustrator 19.1.0, SVG Export Plug-In . SVG Version: 6.00 Build 0)  -->
<!DOCTYPE svg PUBLIC "-//W3C//DTD SVG 1.1//EN" "http://www.w3.org/Graphics/SVG/1.1/DTD/svg11.dtd">
<svg version="1.1" id="Layer_1" xmlns="http://www.w3.org/2000/svg" xmlns:xlink="http://www.w3.org/1999/xlink" x="0px" y="0px"
	 viewBox="0 0 186 109" style="enable-background:new 0 0 186 109;" xml:space="preserve">
<style type="text/css">
	.st0{fill:#FFFFFF;}
</style>
<polygon class="st0" points="55.8,59.1 71.3,7.8 85.2,7.8 69.6,59.1 55.8,59.1 "/>
<path class="st0" d="M49.5,7.9L37.1,29.6c-3.2,5.7-5,8.6-5.9,12.2H31c0.2-4.6-0.4-10.2-0.5-13.3L29.1,7.9H5.7L5.5,9.2
	c6,0,9.6,3,10.5,9.2l4.6,40.7H35L64,7.9H49.5L49.5,7.9z"/>
<path class="st0" d="M157.4,59.1l-0.4-7.6l-17.3,0l-3.5,7.6h-15.1l27.3-51.2h18.5l4.6,51.2H157.4L157.4,59.1z M155.8,28.9
	c-0.2-3.8-0.3-8.9,0-12h-0.2c-0.8,2.5-4.5,10.2-6.1,13.9L144.4,42h12.2L155.8,28.9L155.8,28.9z"/>
<path class="st0" d="M99.7,60.6c-9.8,0-16.3-3.1-20.9-5.9l6.6-10.1c4.2,2.3,7.4,5,15,5c2.4,0,4.8-0.6,6.1-2.9
	c1.9-3.3-0.4-5.1-5.9-8.2l-2.7-1.7c-8-5.5-11.5-10.7-7.7-19.8c2.4-5.8,8.8-10.2,19.3-10.2c7.3,0,14.1,3.1,18,6.2l-7.6,8.9
	c-3.9-3.1-7.1-4.7-10.8-4.7c-2.9,0-5.2,1.1-5.9,2.7c-1.4,2.9,0.5,4.8,4.7,7.4l3.2,2c9.8,6.2,12.1,12.6,9.6,18.6
	C116.6,58.3,108.3,60.6,99.7,60.6L99.7,60.6z"/>
<path class="st0" d="M18.2,103.7c35.9-15.4,86.2-29.3,152.9-15.4l0.7-16.9C101.5,63.8,51,86.2,18.2,102V103.7L18.2,103.7z"/>
<path class="st0" d="M175.3,15.8h-0.9v-5.6h2.1c1.3,0,2,0.5,2,1.6c0,1-0.6,1.4-1.4,1.5l1.6,2.4h-1l-1.4-2.4h-0.9V15.8L175.3,15.8z
	 M176.4,12.6c0.7,0,1.3-0.1,1.3-0.9c0-0.7-0.7-0.8-1.2-0.8h-1.1v1.6H176.4L176.4,12.6z M176.3,17.9c-2.9,0-4.9-2.2-4.9-5
	c0-3,2.3-5,4.9-5c2.6,0,4.9,2,4.9,5C181.3,15.9,179,17.9,176.3,17.9L176.3,17.9z M176.3,8.8c-2.2,0-3.9,1.7-3.9,4.1
	c0,2.3,1.5,4.1,3.9,4.1c2.1,0,3.8-1.7,3.8-4.1C180.2,10.5,178.5,8.8,176.3,8.8L176.3,8.8z"/>
</svg>
